<?xml version="1.0" standalone="no"?>
<!DOCTYPE svg PUBLIC "-//W3C//DTD SVG 1.1//EN" "http://www.w3.org/Graphics/SVG/1.1/DTD/svg11.dtd" >
<svg xmlns="http://www.w3.org/2000/svg">
<metadata>Generated by IcoMoon</metadata>
<defs>
<font id="Accountant-Pro" horiz-adv-x="1024">
<font-face units-per-em="1024" ascent="960" descent="-64" />
<missing-glyph horiz-adv-x="1024" />
<glyph unicode="&#x20;" horiz-adv-x="512" d="" />
<glyph unicode="&#xe900;" glyph-name="chart-1" d="M255.772 618.667c-23.273 0-42.438-20.533-42.438-45.955v-377.912c0-24.93 19.166-45.466 42.438-45.466 23.729 0 42.895 20.535 42.895 45.466v377.912c0 25.422-19.166 45.955-42.895 45.955zM511.774 746.667c-23.275 0-42.441-18.877-42.441-42.249v-513.283c0-22.925 19.166-41.801 42.441-41.801 23.727 0 42.893 18.876 42.893 41.801v513.283c0 23.372-19.166 42.249-42.893 42.249zM768.226 405.333c-23.727 0-42.893-19.477-42.893-43.593v-169.276c0-23.654 19.166-43.132 42.441-43.132 23.727 0 42.893 19.477 42.893 43.132v169.276c0 24.115-19.166 43.593-42.441 43.593z" />
<glyph unicode="&#xe901;" glyph-name="chart-2" d="M725.333 746.667c-23.565 0-42.667-19.103-42.667-42.667s19.102-42.667 42.667-42.667h152.994l-302.327-302.327-183.163 183.164c-16.663 16.662-43.677 16.662-60.34 0l-320-320c-16.662-16.661-16.662-43.678 0-60.339s43.677-16.661 60.34 0l289.83 289.83 183.164-183.164c16.661-16.661 43.678-16.661 60.339 0l332.497 332.497v-152.994c0-23.565 19.102-42.667 42.667-42.667s42.667 19.102 42.667 42.667v256c0 23.564-19.102 42.667-42.667 42.667h-256z" />
<glyph unicode="&#xe902;" glyph-name="client" d="M853.333 64v85.333c0 45.265-17.98 88.674-49.988 120.678-32.004 32.009-75.413 49.988-120.678 49.988h-341.333c-45.264 0-88.673-17.98-120.68-49.988-32.006-32.004-49.987-75.413-49.987-120.678v-85.333zM512 405.333c117.82 0 213.333 95.514 213.333 213.333s-95.514 213.333-213.333 213.333c-117.821 0-213.333-95.513-213.333-213.333s95.513-213.333 213.333-213.333z" />
<glyph unicode="&#xe903;" glyph-name="customers" d="M682.667 64v85.333c0 45.265-17.98 88.674-49.988 120.678-32.004 32.009-75.413 49.988-120.678 49.988h-341.333c-45.264 0-88.673-17.98-120.68-49.988-32.006-32.004-49.987-75.413-49.987-120.678v-85.333zM768 149.333v-85.333h256v85.333c0 45.265-17.98 88.674-49.988 120.678-32.004 32.009-75.413 49.988-120.678 49.988h-213.333c0 0 46.007-17.98 78.012-49.988 32.009-32.004 49.988-75.413 49.988-120.678zM341.333 405.333c117.82 0 213.333 95.514 213.333 213.333s-95.514 213.333-213.333 213.333c-117.821 0-213.333-95.513-213.333-213.333s95.513-213.333 213.333-213.333zM575.979 433.882c31.381-18.159 67.814-28.548 106.679-28.548 117.82 0 213.333 95.514 213.333 213.333s-95.514 213.333-213.333 213.333c-38.865 0-75.298-10.391-106.679-28.547 40.090-50.839 64.013-115.019 64.013-184.787s-23.923-133.948-64.013-184.785z" />
<glyph unicode="&#xe904;" glyph-name="calculator" d="M938.667 576v-512c0-70.694-57.306-128-128-128h-597.333c-70.692 0-128 57.306-128 128v512h853.333zM277.333 448c-35.346 0-64-28.655-64-64s28.654-64 64-64c35.346 0 64 28.655 64 64s-28.654 64-64 64zM213.333 128c0-35.345 28.654-64 64-64s64 28.655 64 64c0 35.345-28.654 64-64 64s-64-28.655-64-64zM490.667 448c-35.345 0-64-28.655-64-64s28.655-64 64-64c35.345 0 64 28.655 64 64s-28.655 64-64 64zM426.667 128c0-35.345 28.655-64 64-64s64 28.655 64 64c0 35.345-28.655 64-64 64s-64-28.655-64-64zM746.667 448c-35.345 0-64-28.655-64-64v-256c0-35.345 28.655-64 64-64s64 28.655 64 64v256c0 35.345-28.655 64-64 64zM213.333 960h597.333c70.694 0 128-57.308 128-128v-170.667h-853.333v170.667c0 70.692 57.308 128 128 128zM234.667 874.667c-35.346 0-64-28.654-64-64s28.654-64 64-64h554.667c35.345 0 64 28.654 64 64s-28.655 64-64 64h-554.667z" />
<glyph unicode="&#xe905;" glyph-name="portfolio" d="M336.157 837.176c24.005 24.005 56.562 37.49 90.51 37.49h170.667c33.946 0 66.505-13.486 90.509-37.49s37.491-56.562 37.491-90.51v-42.667h-85.333v42.667c0 11.316-4.497 22.168-12.497 30.17s-18.854 12.497-30.17 12.497h-170.667c-11.316 0-22.168-4.495-30.17-12.497s-12.497-18.854-12.497-30.17v-42.667h-85.333v42.667c0 33.948 13.486 66.505 37.49 90.51zM170.667 704c-70.692 0-128-57.308-128-128v-170.667h341.333v42.667c0 47.13 38.205 85.333 85.333 85.333h85.333c47.13 0 85.333-38.204 85.333-85.333v-42.667h341.333v170.667c0 70.692-57.306 128-128 128h-682.667zM384 320h-341.333v-170.667c0-70.694 57.308-128 128-128h682.667c70.694 0 128 57.306 128 128v170.667h-341.333v-42.667c0-47.13-38.204-85.333-85.333-85.333h-85.333c-47.128 0-85.333 38.204-85.333 85.333v42.667zM512 448c23.564 0 42.667-19.103 42.667-42.667v-85.333c0-23.564-19.103-42.667-42.667-42.667s-42.667 19.103-42.667 42.667v85.333c0 23.564 19.103 42.667 42.667 42.667z" />
<glyph unicode="&#xe906;" glyph-name="books" d="M128 917.333h170.667c23.564 0 42.667-19.103 42.667-42.667v-853.333c0-23.565-19.103-42.667-42.667-42.667h-170.667c-23.564 0-42.667 19.102-42.667 42.667v853.333c0 23.564 19.103 42.667 42.667 42.667zM170.667 789.333c0-23.564 19.103-42.667 42.667-42.667s42.667 19.103 42.667 42.667c0 23.564-19.103 42.667-42.667 42.667s-42.667-19.103-42.667-42.667zM170.667 106.667c0-23.565 19.103-42.667 42.667-42.667s42.667 19.102 42.667 42.667c0 23.565-19.103 42.667-42.667 42.667s-42.667-19.102-42.667-42.667zM256 618.667c0 23.564-19.103 42.667-42.667 42.667s-42.667-19.103-42.667-42.667v-341.333c0-23.565 19.103-42.667 42.667-42.667s42.667 19.102 42.667 42.667v341.333zM426.667 917.333h170.667c23.565 0 42.667-19.103 42.667-42.667v-853.333c0-23.565-19.102-42.667-42.667-42.667h-170.667c-23.564 0-42.667 19.102-42.667 42.667v853.333c0 23.564 19.103 42.667 42.667 42.667zM469.333 789.333c0-23.564 19.102-42.667 42.667-42.667s42.667 19.103 42.667 42.667c0 23.564-19.102 42.667-42.667 42.667s-42.667-19.103-42.667-42.667zM469.333 106.667c0-23.565 19.102-42.667 42.667-42.667s42.667 19.102 42.667 42.667c0 23.565-19.102 42.667-42.667 42.667s-42.667-19.102-42.667-42.667zM554.667 618.667c0 23.564-19.102 42.667-42.667 42.667s-42.667-19.103-42.667-42.667v-341.333c0-23.565 19.102-42.667 42.667-42.667s42.667 19.102 42.667 42.667v341.333zM642.001 860.291c-2.278 23.454 14.886 44.314 38.34 46.592l169.869 16.502c23.454 2.278 44.314-14.888 46.592-38.341l82.509-849.337c2.278-23.454-14.886-44.314-38.34-46.592l-169.869-16.499c-23.45-2.278-44.314 14.886-46.592 38.34l-82.509 849.334zM773.53 830.2c-23.454-2.278-40.619-23.139-38.34-46.592s23.138-40.62 46.592-38.341c23.454 2.278 40.619 23.139 38.34 46.592s-23.138 40.62-46.592 38.341zM836.625 621.993c-2.278 23.454-23.138 40.62-46.592 38.341s-40.619-23.139-38.34-46.592l33.003-339.732c2.278-23.454 23.138-40.623 46.592-38.345s40.623 23.138 38.345 46.592l-33.007 339.736zM839.543 150.733c-23.454-2.278-40.619-23.138-38.34-46.592s23.138-40.623 46.592-38.34c23.454 2.278 40.619 23.138 38.34 46.592s-23.138 40.619-46.592 38.34z" />
<glyph unicode="&#xe907;" glyph-name="docs" d="M554.667 874.667c23.565 0 42.667-19.103 42.667-42.667v-170.667c0-23.564 19.102-42.667 42.667-42.667h170.667c23.565 0 42.667-19.102 42.667-42.667v-469.333c0-22.63-8.99-44.335-24.994-60.339s-37.709-24.994-60.339-24.994h-512c-22.632 0-44.337 8.99-60.34 24.994s-24.994 37.709-24.994 60.339v682.667c0 22.632 8.99 44.337 24.994 60.34s37.708 24.994 60.34 24.994h298.667zM341.333 448c-23.564 0-42.667-19.102-42.667-42.667s19.103-42.667 42.667-42.667h341.333c23.565 0 42.667 19.102 42.667 42.667s-19.102 42.667-42.667 42.667h-341.333zM298.667 234.667c0-23.565 19.103-42.667 42.667-42.667h341.333c23.565 0 42.667 19.102 42.667 42.667s-19.102 42.667-42.667 42.667h-341.333c-23.564 0-42.667-19.102-42.667-42.667zM341.333 618.667c-23.564 0-42.667-19.103-42.667-42.667s19.103-42.667 42.667-42.667h85.333c23.565 0 42.667 19.103 42.667 42.667s-19.102 42.667-42.667 42.667h-85.333zM640 771.66c0 38.012 45.956 57.048 72.836 30.17l67.661-67.66c26.88-26.879 7.842-72.837-30.17-72.837h-67.661c-23.565 0-42.667 19.103-42.667 42.667v67.66z" />
<glyph unicode="&#xe908;" glyph-name="card" d="M42.667 533.333h938.667v-298.667c0-70.694-57.306-128-128-128h-682.667c-70.692 0-128 57.306-128 128v298.667zM682.667 277.333c0-23.565 19.102-42.667 42.667-42.667h85.333c23.565 0 42.667 19.102 42.667 42.667s-19.102 42.667-42.667 42.667h-85.333c-23.565 0-42.667-19.102-42.667-42.667zM213.333 320c-23.564 0-42.667-19.102-42.667-42.667s19.103-42.667 42.667-42.667h256c23.565 0 42.667 19.102 42.667 42.667s-19.102 42.667-42.667 42.667h-256zM42.667 661.333c0 70.692 57.308 128 128 128h682.667c70.694 0 128-57.308 128-128v-42.667h-938.667v42.667z" />
<glyph unicode="&#xe909;" glyph-name="chart-3" d="M380.435 856.318c9.425-21.597-0.443-46.746-22.040-56.171-57.489-25.087-107.958-63.875-146.993-112.974s-65.449-107.011-76.933-168.676c-11.483-61.666-7.685-125.205 11.061-185.062s51.87-114.214 96.475-158.31c44.606-44.1 99.335-76.599 159.404-94.665 60.070-18.061 123.648-21.133 185.177-8.943 61.53 12.186 119.134 39.258 167.787 78.852 48.649 39.595 86.857 90.5 111.287 148.275 9.178 21.7 34.21 31.855 55.915 22.677s31.859-34.21 22.682-55.915c-29.858-70.609-76.561-132.83-136.021-181.222s-129.869-81.481-205.073-96.375c-75.2-14.895-152.909-11.14-226.324 10.935-73.417 22.071-140.308 61.798-194.826 115.695-54.518 53.901-95.003 120.333-117.915 193.493s-27.553 150.818-13.519 226.186c14.035 75.368 46.319 146.151 94.029 206.16s109.394 107.417 179.659 138.079c21.597 9.425 46.746-0.443 56.17-22.040zM512 841.846c0 18.126 14.694 32.82 32.819 32.82v0c217.515 0 393.847-176.331 393.847-393.847v0c0-18.125-14.694-32.819-32.819-32.819h-351.181c-23.565 0-42.667 19.102-42.667 42.667v351.18z" />
<glyph unicode="&#xe90a;" glyph-name="currency" d="M512 960c23.565 0 42.667-19.103 42.667-42.667v-42.667c0-23.564-19.102-42.667-42.667-42.667s-42.667 19.103-42.667 42.667v42.667c0 23.564 19.102 42.667 42.667 42.667zM512 64c23.565 0 42.667-19.102 42.667-42.667v-42.667c0-23.565-19.102-42.667-42.667-42.667s-42.667 19.102-42.667 42.667v42.667c0 23.565 19.102 42.667 42.667 42.667zM269.569 733.098c36.007 36.007 84.843 56.236 135.764 56.236h320c23.565 0 42.667-19.103 42.667-42.667s-19.102-42.667-42.667-42.667h-320c-28.29 0-55.421-11.238-75.425-31.242s-31.242-47.135-31.242-75.425c0-28.29 11.238-55.421 31.242-75.426 20.004-20.002 47.135-31.241 75.425-31.241h213.333c50.923 0 99.759-20.228 135.765-56.235s56.235-84.843 56.235-135.765c0-50.923-20.228-99.759-56.235-135.765s-84.843-56.235-135.765-56.235h-362.667c-23.564 0-42.667 19.102-42.667 42.667s19.103 42.667 42.667 42.667h362.667c28.288 0 55.42 11.238 75.426 31.241 20.002 20.006 31.241 47.138 31.241 75.426s-11.238 55.42-31.241 75.426c-20.006 20.002-47.138 31.241-75.426 31.241h-213.333c-50.921 0-99.758 20.228-135.764 56.235s-56.236 84.844-56.236 135.765c0 50.921 20.229 99.758 56.236 135.764z" />
<glyph unicode="&#xe90b;" glyph-name="industries" d="M42.667 533.333c0 70.692 57.308 128 128 128h170.667c70.692 0 128-57.308 128-128v-554.667h-426.667v554.667zM128 533.333c0 23.564 19.103 42.667 42.667 42.667h85.333c23.564 0 42.667-19.103 42.667-42.667s-19.103-42.667-42.667-42.667h-85.333c-23.564 0-42.667 19.102-42.667 42.667zM170.667 405.333c-23.564 0-42.667-19.102-42.667-42.667s19.103-42.667 42.667-42.667h85.333c23.564 0 42.667 19.102 42.667 42.667s-19.103 42.667-42.667 42.667h-85.333zM554.667 746.667c0 70.692 57.306 128 128 128h170.667c70.694 0 128-57.308 128-128v-768h-426.667v768zM725.333 746.667c0 23.564 19.102 42.667 42.667 42.667h85.333c23.565 0 42.667-19.103 42.667-42.667s-19.102-42.667-42.667-42.667h-85.333c-23.565 0-42.667 19.103-42.667 42.667zM768 618.667c-23.565 0-42.667-19.103-42.667-42.667s19.102-42.667 42.667-42.667h85.333c23.565 0 42.667 19.103 42.667 42.667s-19.102 42.667-42.667 42.667h-85.333z" />
<glyph unicode="&#xe90c;" glyph-name="exchange" d="M268.497 435.503c16.663 16.661 43.677 16.661 60.34 0s16.662-43.678 0-60.339l-97.83-97.83h669.26c21.21 0 38.4-19.102 38.4-42.667s-17.19-42.667-38.4-42.667h-669.26l97.83-97.83c16.662-16.661 16.662-43.678 0-60.339s-43.677-16.661-60.34 0l-170.667 170.667c-16.662 16.661-16.662 43.678 0 60.339l170.667 170.667zM755.503 862.17c-16.661 16.662-43.678 16.662-60.339 0s-16.661-43.677 0-60.34l97.83-97.83h-669.261c-21.208 0-38.4-19.103-38.4-42.667s17.192-42.667 38.4-42.667h669.261l-97.83-97.83c-16.661-16.661-16.661-43.678 0-60.339s43.678-16.661 60.339 0l170.667 170.666c16.661 16.663 16.661 43.677 0 60.34l-170.667 170.667z" />
<glyph unicode="&#xe90d;" glyph-name="folders" d="M85.333 652.8c0 47.791 0 71.687 9.301 89.94 8.181 16.057 21.235 29.111 37.292 37.292 18.254 9.301 42.149 9.301 89.94 9.301h131.729c26.715 0 40.073 0 52.198-3.682 10.734-3.26 20.72-8.604 29.389-15.727 9.788-8.046 17.199-19.16 32.017-41.389l4.267-6.403c14.818-22.228 22.229-33.343 32.017-41.389 8.67-7.123 18.654-12.468 29.389-15.727 12.126-3.682 25.481-3.682 52.198-3.682h217.062c47.791 0 71.689 0 89.941-9.301 16.055-8.181 29.111-21.235 37.291-37.292 9.301-18.254 9.301-42.149 9.301-89.94v-281.6c0-47.791 0-71.689-9.301-89.941-8.179-16.055-21.235-29.111-37.291-37.291-18.253-9.301-42.15-9.301-89.941-9.301h-580.267c-47.791 0-71.687 0-89.94 9.301-16.057 8.179-29.111 21.235-37.292 37.291-9.301 18.253-9.301 42.15-9.301 89.941v409.6zM554.667 746.667c0 23.564 19.102 42.667 42.667 42.667h256c23.565 0 42.667-19.103 42.667-42.667v0c0-23.564-19.102-42.667-42.667-42.667h-256c-23.565 0-42.667 19.103-42.667 42.667v0z" />
<glyph unicode="&#xe90e;" glyph-name="money" d="M128 789.333h768c70.694 0 128-57.308 128-128v-426.667c0-70.694-57.306-128-128-128h-768c-70.692 0-128 57.306-128 128v426.667c0 70.692 57.308 128 128 128zM512 234.667c117.82 0 213.333 95.514 213.333 213.333s-95.514 213.333-213.333 213.333c-117.821 0-213.333-95.513-213.333-213.333s95.513-213.333 213.333-213.333zM170.667 661.333c0 23.564-19.103 42.667-42.667 42.667s-42.667-19.103-42.667-42.667c0-23.564 19.103-42.667 42.667-42.667s42.667 19.103 42.667 42.667zM896 618.667c23.565 0 42.667 19.103 42.667 42.667s-19.102 42.667-42.667 42.667c-23.565 0-42.667-19.103-42.667-42.667s19.102-42.667 42.667-42.667zM170.667 234.667c0 23.565-19.103 42.667-42.667 42.667s-42.667-19.102-42.667-42.667c0-23.565 19.103-42.667 42.667-42.667s42.667 19.102 42.667 42.667zM896 192c23.565 0 42.667 19.102 42.667 42.667s-19.102 42.667-42.667 42.667c-23.565 0-42.667-19.102-42.667-42.667s19.102-42.667 42.667-42.667zM640 448c0-70.692-57.308-128-128-128s-128 57.308-128 128c0 70.692 57.308 128 128 128s128-57.308 128-128z" />
<glyph unicode="&#xe90f;" glyph-name="audit" d="M85.333 832h256c45.264 0 88.674-17.981 120.678-49.987 32.009-32.006 49.988-75.416 49.988-120.68v-597.333c0 33.946-13.487 66.505-37.491 90.509s-56.561 37.491-90.509 37.491h-298.667v640zM938.667 832h-256c-45.265 0-88.674-17.981-120.678-49.987-32.009-32.006-49.988-75.416-49.988-120.68v-597.333c0 33.946 13.487 66.505 37.491 90.509s56.563 37.491 90.509 37.491h298.667v640z" />
<glyph unicode="&#xe910;" glyph-name="call-us" d="M938.641 235.785v-128.461c0.047-11.93-2.398-23.731-7.185-34.658s-11.81-20.736-20.617-28.8c-8.802-8.060-19.2-14.199-30.519-18.018-11.319-3.823-23.313-5.239-35.213-4.169-132.028 14.319-258.85 59.345-370.274 131.46-103.667 65.745-191.558 153.459-257.432 256.922-72.511 111.71-117.636 238.896-131.72 371.253-1.072 11.841 0.338 23.776 4.14 35.043s9.914 21.622 17.946 30.403c8.032 8.781 17.807 15.797 28.705 20.601s22.677 7.29 34.591 7.302h128.716c20.822 0.205 41.009-7.154 56.797-20.705s26.1-32.369 29.014-52.946c5.433-41.111 15.508-81.475 30.033-120.326 5.773-15.326 7.022-31.983 3.6-47.996s-11.372-30.712-22.907-42.355l-54.49-54.382c61.078-107.205 150.018-195.964 257.431-256.922l54.49 54.383c11.665 11.511 26.394 19.447 42.441 22.861 16.043 3.413 32.734 2.167 48.090-3.593 38.929-14.498 79.373-24.555 120.567-29.973 20.838-2.935 39.876-13.414 53.483-29.44s20.834-36.489 20.314-57.485zM938.667 746.667c0-70.692-57.308-128-128-128s-128 57.308-128 128c0 70.692 57.308 128 128 128s128-57.308 128-128z" />
<glyph unicode="&#xe911;" glyph-name="mail" d="M853.333 789.333c46.933 0 85.333-38.4 85.333-85.333v-512c0-46.933-38.4-85.333-85.333-85.333h-682.667c-46.933 0-85.333 38.4-85.333 85.333v512c0 46.933 38.4 85.333 85.333 85.333h682.667zM236.411 633.224c-19.822 12.742-46.22 7.004-58.963-12.818s-7.004-46.22 12.818-58.963l298.668-192.001c14.054-9.033 32.090-9.033 46.144 0l298.667 192.001c19.819 12.742 25.562 39.141 12.817 58.963s-39.142 25.56-58.961 12.818l-275.597-177.168-275.593 177.168z" />
<glyph unicode="&#xe912;" glyph-name="check" d="M668.288 799c-75.639 33.702-160.145 42.051-240.913 23.802-80.772-18.249-153.48-62.119-207.281-125.066s-85.813-141.6-91.261-224.226c-5.449-82.628 15.959-164.804 61.029-234.27s111.387-122.505 189.062-151.202c77.674-28.693 162.546-31.514 241.953-8.034 79.411 23.475 149.103 71.996 198.682 138.317 49.583 66.325 76.395 146.897 76.442 229.705v39.228c0 23.565 19.102 42.667 42.667 42.667s42.667-19.102 42.667-42.667v-39.253c-0.060-101.21-32.828-199.71-93.427-280.772-60.599-81.058-145.779-140.361-242.833-169.058-97.054-28.693-200.785-25.25-295.722 9.826-94.936 35.072-175.991 99.895-231.077 184.802-55.086 84.902-81.25 185.34-74.591 286.327s45.785 197.119 111.542 274.054c65.757 76.935 154.622 130.554 253.342 152.858 98.722 22.304 202.005 12.1 294.451-29.092 21.525-9.591 31.198-34.814 21.606-56.338-9.587-21.524-34.812-31.198-56.337-21.608zM968.823 819.518c16.67-16.654 16.683-43.669 0.030-60.34l-426.667-427.095c-8-8.004-18.854-12.506-30.178-12.51-11.319-0.004-22.174 4.493-30.178 12.497l-128 128c-16.662 16.661-16.662 43.678 0 60.339 16.663 16.663 43.677 16.663 60.34 0l97.813-97.813 396.497 396.892c16.657 16.671 43.669 16.684 60.343 0.030z" />
<glyph unicode="&#xe913;" glyph-name="security" d="M512-21.333c0 0 384 187.733 384 469.333v328.533l-384 140.8-384-140.8v-328.533c0-281.6 384-469.333 384-469.333z" />
<glyph unicode="&#xe914;" glyph-name="plus" d="M512-21.333c259.204 0 469.333 210.129 469.333 469.333 0 259.206-210.129 469.333-469.333 469.333-259.206 0-469.333-210.128-469.333-469.333 0-259.204 210.128-469.333 469.333-469.333zM512 661.333c23.565 0 42.667-19.103 42.667-42.667v-128h128c23.565 0 42.667-19.102 42.667-42.667s-19.102-42.667-42.667-42.667h-128v-128c0-23.565-19.102-42.667-42.667-42.667s-42.667 19.102-42.667 42.667v128h-128c-23.564 0-42.667 19.102-42.667 42.667s19.103 42.667 42.667 42.667h128v128c0 23.564 19.102 42.667 42.667 42.667z" />
<glyph unicode="&#xe915;" glyph-name="arrow" d="M584.836 734.17c-16.661 16.662-43.678 16.662-60.339 0s-16.661-43.677 0-60.34l183.164-183.163h-494.327c-23.564 0-42.667-19.102-42.667-42.667s19.103-42.667 42.667-42.667h494.327l-183.164-183.164c-16.661-16.661-16.661-43.678 0-60.339s43.678-16.661 60.339 0l256 256c16.661 16.661 16.661 43.678 0 60.339l-256 256z" />
<glyph unicode="&#xe916;" glyph-name="thumbs-up" d="M601.805 588.802v187.732c0 37.342-15.616 73.155-43.409 99.56s-65.489 41.239-104.794 41.239l-197.602-422.396v-516.267h557.239c23.829-0.256 46.95 7.68 65.105 22.34 18.159 14.665 30.123 35.063 33.698 57.446l68.173 422.4c2.15 13.453 1.195 27.187-2.799 40.256-3.994 13.067-10.931 25.153-20.331 35.421-9.395 10.268-21.030 18.472-34.099 24.044-13.065 5.572-27.251 8.378-41.574 8.224h-279.607zM67.66 3.661c16.003-16.004 37.708-24.994 60.34-24.994h42.667v512h-42.667c-22.632 0-44.337-8.99-60.34-24.994s-24.994-37.709-24.994-60.339v-341.333c0-22.63 8.99-44.335 24.994-60.339z" />
<glyph unicode="&#xe917;" glyph-name="time" d="M981.333 448c0-259.204-210.129-469.333-469.333-469.333-259.206 0-469.333 210.129-469.333 469.333 0 259.206 210.128 469.333 469.333 469.333s469.333-210.128 469.333-469.333zM554.667 704c0 23.564-19.102 42.667-42.667 42.667s-42.667-19.103-42.667-42.667v-256c0-16.162 9.131-30.933 23.586-38.161l170.667-85.333c21.077-10.539 46.703-1.997 57.242 19.081s1.997 46.703-19.081 57.242l-147.081 73.54v229.632z" />
<glyph unicode="&#xe918;" glyph-name="map" d="M512-21.333c0 0 384 256 384 554.667 0 101.843-40.457 199.515-112.469 271.529-72.017 72.014-169.69 112.471-271.531 112.471-101.843 0-199.515-40.457-271.529-112.471s-112.471-169.686-112.471-271.529c0-298.667 384-554.667 384-554.667zM682.667 533.333c0-94.255-76.412-170.667-170.667-170.667-94.257 0-170.667 76.412-170.667 170.667 0 94.257 76.41 170.667 170.667 170.667 94.255 0 170.667-76.41 170.667-170.667zM597.333 533.333c0-47.13-38.204-85.333-85.333-85.333s-85.333 38.204-85.333 85.333c0 47.128 38.204 85.333 85.333 85.333s85.333-38.205 85.333-85.333z" />
<glyph unicode="&#xe919;" glyph-name="info" d="M981.333 448c0-259.204-210.129-469.333-469.333-469.333-259.206 0-469.333 210.129-469.333 469.333 0 259.206 210.128 469.333 469.333 469.333s469.333-210.128 469.333-469.333zM512 661.333c-23.565 0-42.667-19.103-42.667-42.667s19.102-42.667 42.667-42.667h0.427c23.565 0 42.667 19.103 42.667 42.667s-19.102 42.667-42.667 42.667h-0.427zM554.667 448c0 23.565-19.102 42.667-42.667 42.667s-42.667-19.102-42.667-42.667v-170.667c0-23.565 19.102-42.667 42.667-42.667s42.667 19.102 42.667 42.667v170.667z" />
<glyph unicode="&#xe91a;" glyph-name="archives" d="M981.333 832h-938.667v-170.667h938.667v170.667zM938.667 64h-853.333v512h853.333v-512zM426.667 448c-23.564 0-42.667-19.102-42.667-42.667s19.103-42.667 42.667-42.667h170.667c23.565 0 42.667 19.102 42.667 42.667s-19.102 42.667-42.667 42.667h-170.667z" />
<glyph unicode="&#xe91b;" glyph-name="download" d="M554.667 832v-170.667h256c70.694 0 128-57.307 128-128v-384c0-70.694-57.306-128-128-128h-597.333c-70.692 0-128 57.306-128 128v384c0 70.693 57.308 128 128 128h256v170.667c0 23.564 19.102 42.667 42.667 42.667s42.667-19.103 42.667-42.667zM554.667 661.333h-85.333v-323.661l-140.497 140.497c-16.663 16.661-43.677 16.661-60.34 0s-16.662-43.678 0-60.339l213.334-213.333c16.661-16.661 43.678-16.661 60.339 0l213.333 213.333c16.661 16.661 16.661 43.678 0 60.339s-43.678 16.661-60.339 0l-140.497-140.497v323.661z" />
<glyph unicode="&#xe91c;" glyph-name="international" d="M386.386 490.667h251.225c-10.598 120.045-54.221 249.353-125.615 341.333-71.39-91.98-115.011-221.288-125.61-341.333zM637.611 405.333h-251.225c10.598-120.047 54.22-249.353 125.61-341.333 71.394 91.981 115.017 221.286 125.615 341.333zM300.765 490.667c10.342 131.211 56.189 268.426 132.088 376.673-184.171-34.545-326.626-187.42-345.416-376.673h213.327zM591.142 867.34c184.171-34.545 326.626-187.42 345.417-376.673h-213.329c-10.342 131.211-56.188 268.426-132.087 376.673zM300.765 405.333h-213.327c18.79-189.252 161.245-342.127 345.416-376.674-75.899 108.25-121.746 245.461-132.088 376.674zM591.142 28.659c75.9 108.25 121.745 245.461 132.087 376.674h213.329c-18.79-189.252-161.246-342.127-345.417-376.674z" />
<glyph unicode="&#xe91d;" glyph-name="menu" d="M170.667 448c0 23.565 19.103 42.667 42.667 42.667h597.333c23.565 0 42.667-19.102 42.667-42.667s-19.102-42.667-42.667-42.667h-597.333c-23.564 0-42.667 19.102-42.667 42.667zM85.333 704c0 23.564 19.103 42.667 42.667 42.667h768c23.565 0 42.667-19.103 42.667-42.667s-19.102-42.667-42.667-42.667h-768c-23.564 0-42.667 19.103-42.667 42.667zM85.333 192c0 23.565 19.103 42.667 42.667 42.667h768c23.565 0 42.667-19.102 42.667-42.667s-19.102-42.667-42.667-42.667h-768c-23.564 0-42.667 19.102-42.667 42.667z" />
<glyph unicode="&#xe91e;" glyph-name="cart" d="M213.333 106.667c0 47.13 38.205 85.333 85.333 85.333s85.333-38.204 85.333-85.333c0-47.13-38.205-85.333-85.333-85.333s-85.333 38.204-85.333 85.333zM682.667 106.667c0 47.13 38.204 85.333 85.333 85.333s85.333-38.204 85.333-85.333c0-47.13-38.204-85.333-85.333-85.333s-85.333 38.204-85.333 85.333zM272.535 296.179c-15.601 12.557-26.287 30.204-30.189 49.847l-71.68 357.973h725.333l-68.267-357.973c-3.9-19.644-14.588-37.291-30.187-49.847-15.603-12.557-35.123-19.23-55.147-18.846h-414.72c-20.023-0.384-39.544 6.289-55.145 18.846zM128 832c0 23.564 19.103 42.667 42.667 42.667h170.667c23.564 0 42.667-19.103 42.667-42.667s-19.103-42.667-42.667-42.667h-170.667c-23.564 0-42.667 19.103-42.667 42.667z" />
<glyph unicode="&#xe91f;" glyph-name="cancel" d="M798.17 734.17c16.661-16.663 16.661-43.677 0-60.34l-512-512c-16.663-16.661-43.677-16.661-60.34 0s-16.662 43.678 0 60.339l512 512c16.661 16.662 43.678 16.662 60.339 0zM225.83 734.17c16.663 16.662 43.677 16.662 60.34 0l512-512c16.661-16.661 16.661-43.678 0-60.339s-43.678-16.661-60.339 0l-512 512c-16.662 16.663-16.662 43.677 0 60.34z" />
</font>
</defs>
</svg>
